<?xml version="1.0" standalone="no"?>
<!DOCTYPE svg PUBLIC "-//W3C//DTD SVG 20010904//EN"
 "http://www.w3.org/TR/2001/REC-SVG-20010904/DTD/svg10.dtd">
<svg version="1.0" xmlns="http://www.w3.org/2000/svg"
 width="200.000000pt" height="200.000000pt" viewBox="0 0 200.000000 200.000000"
 preserveAspectRatio="xMidYMid meet">

<g transform="translate(0.000000,200.000000) scale(0.100000,-0.100000)"
fill="#000000" stroke="none">
<path d="M115 1981 c-140 -65 -155 -255 -26 -346 36 -25 52 -30 104 -30 38 0
74 6 93 16 l32 16 108 -108 c59 -60 106 -111 103 -114 -3 -3 -38 -16 -78 -30
l-72 -24 -31 35 c-17 19 -43 41 -57 49 -160 82 -345 -87 -276 -253 58 -137
243 -166 339 -52 l26 32 208 -70 207 -69 0 -33 0 -33 -207 -69 -208 -70 -26
32 c-38 44 -94 70 -154 70 -177 0 -264 -205 -142 -333 41 -43 81 -60 142 -60
64 0 105 18 148 67 l31 35 75 -25 c42 -14 76 -29 76 -33 0 -3 -48 -54 -107
-113 -99 -98 -110 -106 -127 -93 -10 8 -39 17 -63 21 -212 32 -319 -246 -140
-364 34 -23 52 -27 107 -27 55 0 73 4 107 27 52 34 81 81 90 148 l8 53 207 69
208 70 26 -32 c117 -139 354 -56 354 124 l0 34 210 70 209 70 43 -43 c99 -99
251 -75 313 49 52 104 16 214 -87 267 -46 23 -128 25 -170 3 l-31 -16 -51 51
-51 51 51 51 51 51 31 -16 c42 -22 124 -20 170 3 130 67 149 231 39 328 -84
74 -199 65 -275 -21 l-30 -35 -211 70 -211 71 0 34 c0 180 -237 263 -354 124
l-26 -32 -208 70 -207 69 -8 54 c-19 138 -158 217 -282 160z m176 -90 c35 -35
39 -44 39 -91 0 -47 -4 -56 -39 -91 -35 -35 -44 -39 -91 -39 -47 0 -56 4 -91
39 -35 35 -39 44 -39 91 0 77 53 130 130 130 47 0 56 -4 91 -39z m306 -258
l203 -68 0 -31 c0 -32 -1 -33 -96 -64 l-96 -32 -124 123 c-113 113 -132 139
-101 139 6 0 103 -30 214 -67z m460 18 c126 -58 78 -251 -62 -251 -93 0 -155
114 -109 201 15 29 80 69 114 69 8 0 34 -9 57 -19z m-205 -247 c17 -19 45 -42
62 -51 40 -21 132 -21 172 0 l31 16 106 -107 c59 -59 107 -110 107 -113 0 -3
-33 -16 -74 -29 l-73 -23 -41 41 c-61 61 -131 76 -218 46 l-47 -16 -103 103
c-57 57 -104 107 -104 110 0 5 102 45 148 58 1 1 17 -15 34 -35z m546 -38
l202 -68 0 -32 c0 -31 -1 -32 -94 -63 l-94 -30 -121 121 c-108 109 -145 157
-108 144 6 -3 103 -35 215 -72z m-1137 19 c64 -34 89 -128 50 -191 -13 -21
-36 -38 -65 -49 -44 -17 -48 -17 -92 0 -54 21 -84 62 -84 118 0 103 102 168
191 122z m1600 0 c64 -34 89 -128 50 -191 -13 -21 -36 -38 -65 -49 -44 -17
-48 -17 -92 0 -54 21 -84 62 -84 118 0 103 102 168 191 122z m-1148 -143 c110
-111 133 -142 105 -142 -7 0 -104 30 -215 67 l-203 68 0 31 c0 32 2 33 88 62
48 17 92 31 97 31 6 1 63 -52 128 -117z m917 -85 c0 -7 -22 -34 -48 -60 l-48
-47 -34 35 c-25 25 -30 36 -19 40 125 46 149 51 149 32z m-539 -66 c35 -35 39
-44 39 -91 0 -47 -4 -56 -39 -91 -35 -35 -44 -39 -91 -39 -47 0 -56 4 -91 39
-35 35 -39 44 -39 91 0 47 4 56 39 91 35 35 44 39 91 39 47 0 56 -4 91 -39z
m349 -46 l44 -45 -47 -47 -47 -47 -92 30 c-93 30 -93 30 -93 64 0 33 1 34 80
61 44 15 87 28 95 28 9 1 36 -19 60 -44z m190 -202 c0 -7 -4 -13 -8 -13 -8 0
-91 27 -141 45 -11 4 -6 15 19 40 l34 35 48 -47 c26 -26 48 -53 48 -60z m-800
44 c0 -7 -53 -66 -119 -131 l-119 -118 -96 32 c-95 31 -96 32 -96 64 l0 31
198 67 c208 70 232 76 232 55z m431 -8 c35 -12 66 -24 68 -26 3 -2 -44 -53
-104 -113 -106 -106 -109 -108 -135 -95 -78 40 -162 25 -228 -40 l-43 -43 -71
24 c-39 13 -74 26 -77 29 -3 3 44 55 104 115 102 103 109 108 130 94 32 -21
104 -28 153 -15 27 8 57 26 80 51 20 21 42 39 48 39 5 1 39 -9 75 -20z m-1004
-28 c126 -58 78 -251 -62 -251 -93 0 -155 114 -109 201 15 29 80 69 114 69 8
0 34 -9 57 -19z m1600 0 c126 -58 78 -251 -62 -251 -93 0 -155 114 -109 201
15 29 80 69 114 69 8 0 34 -9 57 -19z m-257 -117 l0 -32 -202 -68 c-112 -37
-209 -69 -215 -72 -37 -13 0 35 108 144 l121 121 94 -30 c93 -31 94 -32 94
-63z m-539 -149 c64 -34 89 -128 50 -191 -13 -21 -36 -38 -65 -49 -44 -17 -48
-17 -92 0 -54 21 -84 62 -84 118 0 103 102 168 191 122z m-354 -56 c91 -30 93
-31 93 -63 l0 -31 -203 -68 c-111 -37 -208 -67 -215 -67 -6 0 -12 6 -12 12 0
12 229 248 240 248 3 0 47 -14 97 -31z m-416 -238 c35 -35 39 -44 39 -91 0
-47 -4 -56 -39 -91 -35 -35 -44 -39 -91 -39 -47 0 -56 4 -91 39 -35 35 -39 44
-39 91 0 47 4 56 39 91 35 35 44 39 91 39 47 0 56 -4 91 -39z"/>
<path d="M172 1860 c-28 -12 -47 -57 -31 -76 17 -21 41 -17 67 10 25 27 28 46
10 64 -14 14 -15 14 -46 2z"/>
<path d="M951 1574 c-24 -31 -24 -52 1 -68 14 -8 23 -5 48 19 38 36 37 69 -1
73 -19 2 -33 -5 -48 -24z"/>
<path d="M164 1323 c-34 -24 -38 -75 -7 -88 21 -7 76 48 71 72 -3 19 -45 29
-64 16z"/>
<path d="M1764 1323 c-34 -24 -38 -75 -7 -88 21 -7 76 48 71 72 -3 19 -45 29
-64 16z"/>
<path d="M968 1059 c-43 -25 -47 -89 -5 -89 46 1 89 79 51 94 -20 8 -26 7 -46
-5z"/>
<path d="M151 774 c-24 -31 -24 -52 1 -68 14 -8 23 -5 48 19 38 36 37 69 -1
73 -19 2 -33 -5 -48 -24z"/>
<path d="M1751 774 c-24 -31 -24 -52 1 -68 14 -8 23 -5 48 19 38 36 37 69 -1
73 -19 2 -33 -5 -48 -24z"/>
<path d="M964 523 c-34 -24 -38 -75 -7 -88 21 -7 76 48 71 72 -3 19 -45 29
-64 16z"/>
<path d="M168 259 c-43 -25 -47 -89 -5 -89 46 1 89 79 51 94 -20 8 -26 7 -46
-5z"/>
</g>
</svg>
