<?xml version="1.0" standalone="no"?>
<!DOCTYPE svg PUBLIC "-//W3C//DTD SVG 20010904//EN"
 "http://www.w3.org/TR/2001/REC-SVG-20010904/DTD/svg10.dtd">
<svg version="1.0" xmlns="http://www.w3.org/2000/svg"
 width="225.000000pt" height="225.000000pt" viewBox="0 0 225.000000 225.000000"
 preserveAspectRatio="xMidYMid meet">

<g transform="translate(0.000000,225.000000) scale(0.100000,-0.100000)"
fill="#000000" stroke="none">
<path d="M950 2165 c-101 -19 -183 -48 -252 -90 -48 -30 -60 -34 -83 -25 -14
5 -45 10 -68 10 -143 0 -203 -191 -80 -257 20 -11 31 -23 28 -31 -19 -50 -25
-209 -13 -362 14 -186 15 -339 3 -615 -11 -265 10 -371 95 -483 l40 -52 -45
-43 c-51 -50 -58 -82 -22 -115 34 -32 62 -27 129 23 33 25 68 45 77 45 10 0
43 -9 74 -19 177 -61 463 -49 637 27 l45 19 57 -53 c31 -30 64 -54 73 -54 21
0 65 44 65 65 0 26 -27 71 -58 97 l-29 24 29 35 c29 34 68 101 68 116 0 4 -11
-11 -24 -34 -43 -75 -76 -111 -144 -157 -201 -136 -579 -153 -809 -38 -131 66
-206 168 -239 322 -14 63 -15 106 -8 260 10 231 10 405 -1 680 -9 245 1 322
57 437 37 76 126 164 201 198 120 55 197 69 401 69 104 1 171 4 150 8 -65 11
-274 7 -354 -7z m-323 -128 c3 -4 -8 -22 -25 -40 -26 -26 -39 -33 -61 -29 -23
3 -33 -2 -47 -23 -16 -25 -16 -27 4 -55 18 -24 20 -33 11 -59 -6 -17 -15 -31
-21 -31 -5 0 -25 15 -44 34 -28 28 -34 41 -34 78 0 49 23 90 66 120 23 15 42
18 86 15 32 -2 61 -6 65 -10z m1042 -1814 c25 -31 36 -67 25 -84 -5 -8 -11 -3
-21 15 -7 14 -18 26 -23 26 -5 0 -1 -14 8 -30 15 -27 15 -32 2 -40 -24 -16
-30 -13 -82 41 -42 44 -48 53 -34 61 9 5 28 20 43 33 31 26 48 22 82 -22z
m-991 -3 c24 -16 48 -31 55 -34 9 -4 9 -8 1 -11 -6 -3 -35 -24 -65 -45 -76
-57 -122 -51 -88 12 6 11 8 22 6 24 -3 3 -11 -8 -18 -25 -15 -34 -29 -31 -29
6 0 17 13 39 40 65 23 21 44 38 48 38 4 0 26 -13 50 -30z"/>
<path d="M1358 2153 c7 -3 16 -2 19 1 4 3 -2 6 -13 5 -11 0 -14 -3 -6 -6z"/>
<path d="M1398 2143 c7 -3 16 -2 19 1 4 3 -2 6 -13 5 -11 0 -14 -3 -6 -6z"/>
<path d="M1606 2075 c-23 -12 -32 -13 -45 -3 -9 7 3 -7 27 -30 24 -24 56 -63
71 -88 25 -38 30 -42 41 -28 22 26 1 68 -37 74 -18 3 -40 16 -52 31 l-20 26
25 12 c89 40 194 -34 194 -138 0 -38 -5 -49 -37 -79 -21 -19 -28 -30 -16 -24
89 48 83 185 -9 242 -39 24 -102 26 -142 5z"/>
<path d="M1260 2054 c-150 -65 -161 -262 -18 -335 62 -32 170 -24 226 15 84
58 103 157 47 252 -44 75 -164 108 -255 68z m176 -10 c99 -47 133 -186 66
-266 -35 -42 -96 -68 -160 -68 -67 0 -109 18 -149 63 -56 64 -56 144 -1 211
57 70 167 97 244 60z"/>
<path d="M1207 1912 c-22 -24 -21 -65 1 -85 39 -35 92 -10 92 43 0 54 -59 80
-93 42z m75 -57 c0 -5 -5 -11 -11 -13 -6 -2 -11 4 -11 13 0 9 5 15 11 13 6 -2
11 -8 11 -13z"/>
<path d="M751 2028 c-85 -41 -125 -151 -87 -241 54 -130 262 -149 352 -32 29
38 41 101 30 160 -8 43 -59 103 -103 121 -49 21 -140 17 -192 -8z m195 -7 c53
-24 86 -71 92 -132 6 -62 -2 -90 -34 -129 -60 -71 -178 -93 -258 -47 -69 39
-104 138 -75 214 36 95 171 141 275 94z"/>
<path d="M720 1900 c-11 -11 -20 -31 -20 -45 0 -26 31 -65 53 -65 30 0 57 31
57 65 0 24 -7 39 -22 49 -30 21 -44 20 -68 -4z m73 -46 c8 -8 -3 -34 -14 -34
-5 0 -9 9 -9 20 0 19 11 26 23 14z"/>
<path d="M1691 1895 c1 -19 18 -51 18 -35 0 8 -4 22 -9 30 -5 8 -9 11 -9 5z"/>
<path d="M1710 1831 c0 -6 4 -13 10 -16 6 -3 7 1 4 9 -7 18 -14 21 -14 7z"/>
<path d="M1083 1749 c-18 -5 -38 -19 -44 -31 -7 -12 -27 -36 -45 -54 -37 -35
-44 -72 -18 -98 8 -9 19 -16 23 -16 5 0 11 -19 14 -41 3 -23 15 -51 26 -62 17
-18 24 -19 46 -9 19 9 30 9 44 0 10 -6 30 -8 44 -4 25 6 27 10 27 61 0 43 3
53 14 49 19 -7 53 11 66 36 15 28 -3 65 -44 92 -20 13 -36 31 -36 41 0 11 -13
24 -35 33 -39 16 -38 16 -82 3z m162 -102 c25 -25 32 -40 28 -56 -9 -35 -43
-46 -88 -27 -39 16 -111 23 -87 8 18 -12 2 -111 -20 -126 -23 -14 -37 0 -47
47 -10 41 -5 52 27 62 36 11 20 16 -17 5 -26 -7 -36 -5 -52 11 -25 25 -24 42
5 76 21 25 26 26 50 15 36 -16 95 -15 126 2 36 20 39 19 75 -17z m-74 -87 c29
-16 28 -106 -1 -115 -34 -11 -50 12 -50 71 0 57 10 66 51 44z"/>
<path d="M1741 1674 c0 -11 3 -14 6 -6 3 7 2 16 -1 19 -3 4 -6 -2 -5 -13z"/>
<path d="M1751 1564 c0 -11 3 -14 6 -6 3 7 2 16 -1 19 -3 4 -6 -2 -5 -13z"/>
<path d="M1762 1125 c1 -36 2 -41 5 -16 4 32 6 33 40 28 38 -7 83 -41 83 -64
0 -10 -7 -12 -22 -8 -21 5 -21 5 -6 -8 19 -15 12 -32 -17 -40 -18 -4 -18 -5 2
-6 31 -1 59 52 45 84 -11 24 -68 55 -100 55 -11 0 -23 6 -25 13 -3 6 -5 -10
-5 -38z"/>
<path d="M403 1120 c-48 -29 -56 -50 -33 -88 11 -18 27 -32 35 -32 17 0 75 27
75 36 0 2 -13 -2 -30 -11 -50 -26 -86 -12 -58 22 9 12 9 15 1 9 -21 -12 -34 3
-23 24 12 22 42 40 85 51 27 6 28 7 5 8 -14 0 -39 -8 -57 -19z"/>
<path d="M1770 1039 c0 -5 4 -8 9 -4 5 3 12 1 16 -5 3 -5 11 -10 18 -10 6 0 2
7 -9 15 -23 17 -34 19 -34 4z"/>
<path d="M1773 945 c0 -33 2 -45 4 -27 2 18 2 45 0 60 -2 15 -4 0 -4 -33z"/>
<path d="M1773 690 c0 -25 2 -35 4 -22 2 12 2 32 0 45 -2 12 -4 2 -4 -23z"/>
<path d="M1762 600 c0 -14 2 -19 5 -12 2 6 2 18 0 25 -3 6 -5 1 -5 -13z"/>
<path d="M1751 544 c0 -11 3 -14 6 -6 3 7 2 16 -1 19 -3 4 -6 -2 -5 -13z"/>
<path d="M1732 483 c-15 -48 -8 -55 8 -8 7 20 10 38 8 41 -3 2 -10 -13 -16
-33z"/>
</g>
</svg>
