<?xml version="1.0" standalone="no"?>
<!DOCTYPE svg PUBLIC "-//W3C//DTD SVG 20010904//EN"
 "http://www.w3.org/TR/2001/REC-SVG-20010904/DTD/svg10.dtd">
<svg version="1.0" xmlns="http://www.w3.org/2000/svg"
 width="512.000000pt" height="512.000000pt" viewBox="0 0 512.000000 512.000000"
 preserveAspectRatio="xMidYMid meet">

<g transform="translate(0.000000,512.000000) scale(0.100000,-0.100000)"
fill="#000000" stroke="none">
<path d="M2408 5033 l-148 -86 0 -171 0 -171 110 -63 110 -64 0 -244 0 -244
80 0 80 0 0 244 0 245 110 62 110 63 0 172 0 172 -150 86 c-82 47 -150 86
-152 85 -2 0 -69 -39 -150 -86z m231 -134 l71 -41 0 -79 c0 -43 -4 -79 -9 -79
-5 0 -39 17 -75 38 l-66 37 0 83 c0 45 2 82 4 82 2 0 36 -18 75 -41z"/>
<path d="M910 4406 l-154 -43 -45 -167 -45 -167 121 -121 121 -121 115 31 c63
18 120 32 128 32 8 0 91 -76 184 -170 l170 -170 52 52 53 53 -172 172 -173
173 33 127 33 126 -118 119 c-65 65 -125 118 -133 117 -8 0 -85 -20 -170 -43z
m194 -185 l59 -59 -44 -12 c-24 -6 -61 -16 -82 -22 -38 -11 -38 -11 -97 47
-33 32 -58 60 -56 62 5 6 128 41 146 42 9 0 42 -26 74 -58z"/>
<path d="M3907 4332 l-118 -119 33 -126 33 -127 -173 -173 -172 -172 52 -53
53 -52 172 172 173 173 127 -33 127 -33 120 120 120 120 -45 167 -45 168 -154
42 c-85 24 -162 43 -170 43 -8 1 -68 -52 -133 -117z m280 -78 c49 -14 53 -18
63 -57 6 -23 16 -57 22 -75 5 -18 7 -36 4 -39 -7 -7 -136 26 -152 39 -11 8
-44 121 -44 149 0 12 13 10 107 -17z"/>
<path d="M2258 3659 l-3 -170 -70 -30 -70 -29 -122 122 -123 123 -212 -213
-213 -212 123 -123 122 -122 -29 -70 -30 -70 -175 -3 -176 -2 0 -300 0 -300
176 -2 175 -3 30 -70 29 -70 -122 -122 -123 -123 213 -212 212 -213 123 123
122 122 70 -29 70 -30 3 -175 2 -176 300 0 300 0 2 176 3 175 70 30 70 29 122
-122 123 -123 212 213 213 212 -123 123 -122 122 29 70 30 70 175 3 176 2 0
300 0 300 -176 2 -175 3 -30 70 -29 70 122 122 123 123 -213 212 -212 213
-123 -123 -122 -122 -70 29 -70 30 -3 170 -2 171 -300 0 -300 0 -2 -171z m452
-134 l0 -154 43 -11 c64 -17 166 -58 226 -92 l53 -31 109 109 109 109 102
-103 103 -102 -108 -108 -108 -109 40 -76 c22 -42 52 -115 67 -162 l26 -85
154 0 154 0 0 -150 0 -150 -154 0 -154 0 -26 -85 c-15 -47 -45 -120 -67 -162
l-40 -76 108 -109 108 -108 -103 -102 -102 -103 -108 108 -109 108 -76 -40
c-42 -22 -115 -52 -162 -67 l-85 -26 0 -154 0 -154 -150 0 -150 0 0 154 0 154
-85 26 c-47 15 -120 45 -162 67 l-76 40 -109 -108 -108 -108 -102 103 -103
102 108 108 108 109 -40 76 c-22 42 -52 115 -67 162 l-26 85 -154 0 -154 0 0
150 0 150 154 0 154 0 26 85 c15 47 45 120 67 162 l40 76 -108 109 -108 108
103 102 102 103 108 -108 109 -108 76 40 c42 22 115 52 162 67 l85 26 0 154 0
154 150 0 150 0 0 -155z"/>
<path d="M2447 3000 c-106 -27 -222 -119 -275 -219 -98 -182 -76 -382 56 -523
73 -78 75 -78 122 -7 l41 62 -35 29 c-55 45 -90 128 -90 213 0 221 217 365
417 277 146 -65 215 -259 144 -405 -16 -31 -44 -69 -62 -85 l-34 -28 39 -62
c46 -73 49 -73 124 8 199 213 127 575 -141 707 -66 33 -82 36 -171 39 -53 2
-114 -1 -135 -6z"/>
<path d="M2484 2196 c-20 -82 -17 -86 76 -86 93 0 96 4 76 86 l-17 69 -59 0
-59 0 -17 -69z"/>
<path d="M86 2710 l-86 -150 86 -150 87 -150 171 0 171 0 63 110 64 110 244 0
244 0 0 75 0 75 -242 2 -242 3 -66 112 -65 113 -171 0 -171 0 -87 -150z m350
-17 c6 -10 25 -44 43 -75 l32 -58 -85 0 -85 0 -41 69 c-22 38 -40 72 -40 75 0
3 37 6 83 6 68 0 84 -3 93 -17z"/>
<path d="M4540 2748 l-65 -113 -243 -3 -242 -2 0 -75 0 -75 244 0 244 0 64
-110 63 -110 171 0 171 0 87 150 86 150 -86 150 -87 150 -171 0 -171 0 -65
-112z m359 -109 c23 -39 41 -73 41 -75 0 -2 -38 -4 -84 -4 l-84 0 -40 69 c-22
38 -38 72 -34 75 3 3 40 6 83 6 l77 0 41 -71z"/>
<path d="M1335 1440 c-93 -94 -176 -170 -184 -170 -8 0 -65 14 -128 32 l-115
31 -121 -121 -121 -121 45 -167 45 -167 167 -46 168 -45 120 120 121 121 -34
126 -33 127 173 173 172 172 -53 53 -52 52 -170 -170z m-295 -301 l78 -21 21
-78 c11 -43 21 -80 21 -83 0 -3 -37 5 -82 17 l-81 23 -23 81 c-12 45 -20 82
-17 82 3 0 40 -10 83 -21z"/>
<path d="M3562 1558 l-52 -53 172 -172 173 -173 -33 -127 -34 -126 121 -121
120 -120 168 45 167 45 45 167 45 168 -120 120 -120 120 -127 -33 -127 -33
-173 173 -172 172 -53 -52z m663 -458 c58 -59 58 -59 47 -97 -6 -21 -16 -58
-22 -82 l-12 -44 -63 63 -63 62 21 79 c12 43 24 79 27 79 3 0 32 -27 65 -60z"/>
<path d="M2480 886 l0 -244 -110 -64 -110 -63 0 -171 0 -171 150 -87 150 -86
150 86 150 86 0 172 0 172 -110 63 -110 62 0 245 0 244 -80 0 -80 0 0 -244z
m213 -450 c14 -9 17 -25 17 -93 0 -46 -3 -83 -7 -83 -5 0 -37 17 -73 38 l-65
38 -3 88 -3 88 58 -33 c32 -18 66 -37 76 -43z"/>
</g>
</svg>
